# xmcd CD database file
#
# Track frame offsets:
#	150
#	16307
#	30580
#	48857
#	63622
#	84982
#	96845
#	114695
#	135255
#	151782
#	163640
#	178630
#
# Disc length: 2524 seconds
#
# Revision: 1
# Processed by: cddbd v1.4PL0 Copyright (c) Steve Scherf et al.
# Submitted via: CDex 1.50Beta7
#
DISCID=8a09da0c
DTITLE=Ace Moreland - I'm A Jealous Man
DYEAR=1993
DGENRE=Blues
TTITLE0=Jealous Man
TTITLE1=Lesson on Love
TTITLE2=Rain
TTITLE3=Louise
TTITLE4=Murdered by Love
TTITLE5=Big Daddy Thunder
TTITLE6=Sell My Monkey
TTITLE7=Too Far Gone
TTITLE8=Head in the Bottle
TTITLE9=Crazy 'bout Suzie
TTITLE10=Grandaddy Cockroach
TTITLE11=Gates of Hell
EXTD=YEAR: 1993
EXTT0=
EXTT1=
EXTT2=
EXTT3=
EXTT4=
EXTT5=
EXTT6=
EXTT7=
EXTT8=
EXTT9=
EXTT10=
EXTT11=
PLAYORDER=
